<svg enable-background="new 0 0 300 100" viewBox="0 0 300 100" xmlns="http://www.w3.org/2000/svg"><path d="m275.9 0h-251.5c-.9 0-1.8 0-2.7 0-.8 0-1.5 0-2.3 0-1.7 0-3.4.2-5 .4-1.7.4-3.3.9-4.8 1.6-1.5.8-2.9 1.8-4 3-1.2 1.2-2.2 2.5-3 4s-1.3 3.1-1.6 4.8-.4 3.3-.4 5v2.3 57.8 2.3c0 1.7.2 3.4.4 5 .3 1.7.8 3.3 1.6 4.8s1.8 2.9 2.9 4c1.2 1.2 2.5 2.2 4 2.9 1.5.8 3.1 1.3 4.8 1.6s3.3.4 5 .4h2.3 2.7 251.5 2.7 2.3c1.7 0 3.3-.2 5-.4 1.7-.3 3.3-.8 4.8-1.6s2.9-1.8 4-2.9c1.2-1.2 2.2-2.5 3-4s1.3-3.1 1.5-4.8c.3-1.7.4-3.3.5-5 0-.8 0-1.5 0-2.3 0-.9 0-1.8 0-2.7v-52.4c0-.9 0-1.8 0-2.7 0-.8 0-1.5 0-2.3 0-1.7-.2-3.4-.5-5-.3-1.7-.8-3.3-1.5-4.8-1.5-3-4-5.5-7-7-1.5-.8-3.1-1.3-4.8-1.6s-3.3-.4-5-.4c-.8 0-1.5 0-2.3 0-.8 0-1.7 0-2.6 0z" fill="#a6a6a6"/><path d="m21.7 97.8c-.8 0-1.5 0-2.3 0-1.6 0-3.1-.2-4.7-.4-1.4-.2-2.8-.7-4.1-1.4s-2.5-1.5-3.5-2.5-1.9-2.2-2.6-3.5-1.1-2.7-1.4-4.1c-.3-1.5-.4-3.1-.4-4.7 0-.5 0-2.3 0-2.3v-57.8s0-1.7 0-2.2c0-1.6.2-3.1.4-4.7.2-1.4.7-2.8 1.4-4.2.7-1.3 1.5-2.5 2.5-3.5s2.2-1.9 3.5-2.6 2.7-1.1 4.1-1.4c1.6-.3 3.1-.4 4.7-.4h2.3 256.9 2.3c1.6 0 3.1.2 4.6.4s2.9.7 4.2 1.4c2.6 1.3 4.7 3.5 6 6 .7 1.3 1.1 2.7 1.3 4.1.3 1.6.4 3.1.4 4.7v2.2 2.7 52.3 2.7 2.3c0 1.6-.2 3.1-.4 4.6s-.7 2.9-1.4 4.2-1.5 2.5-2.5 3.5-2.2 1.9-3.5 2.6-2.7 1.1-4.2 1.4-3.1.4-4.7.4c-.7 0-1.5 0-2.2 0h-2.7z"/><g fill="#fff"><path d="m64.5 57.3c-1.3-2-2-4.3-2-6.6 0-2.1.6-4.1 1.6-5.9s2.5-3.3 4.3-4.4c-1.1-1.6-2.6-2.9-4.4-3.9-1.7-.9-3.7-1.5-5.6-1.5-4.2-.4-8.3 2.5-10.4 2.5-2.2 0-5.5-2.5-9-2.4-2.3.1-4.5.7-6.5 1.9s-3.6 2.9-4.7 4.9c-4.8 8.4-1.2 20.7 3.4 27.4 2.3 3.3 5 7 8.6 6.9 3.5-.1 4.8-2.2 8.9-2.2s5.4 2.2 9 2.1c3.7-.1 6.1-3.3 8.3-6.7 1.7-2.4 2.9-5 3.8-7.7-2.2-.9-4-2.4-5.3-4.4z"/><path d="m52.1 33.4c1.4-.7 2.6-1.6 3.6-2.8 2-2.4 3-5.6 2.8-8.7-3.1.3-6 1.8-8 4.1-1 1.1-1.8 2.5-2.3 3.9s-.7 3-.6 4.5c1.5 0 3.1-.4 4.5-1z"/><path d="m97.8 45.2-11.2 31h5l2.8-8.4h11.8l2.8 8.4h5.1l-11.2-31zm-2.1 18.8 4.6-13.6h.1l4.6 13.6z"/><path d="m128.9 53.4c-1.5 0-2.9.3-4.2 1s-2.3 1.7-3.1 3h-.1v-3.8h-4.5v30.1h4.6v-11.2h.1c.7 1.3 1.7 2.3 3 3s2.7 1 4.1 1c5.7 0 9.4-4.5 9.4-11.6.3-7-3.5-11.5-9.3-11.5zm-1.2 19.1c-3.5 0-5.9-3.1-5.9-7.6s2.4-7.6 5.9-7.6c3.6 0 6 3 6 7.6s-2.4 7.6-6 7.6z"/><path d="m153.8 53.4c-1.5 0-2.9.3-4.2 1s-2.3 1.7-3.1 3h-.1v-3.8h-4.5v30.1h4.6v-11.2h.1c.7 1.3 1.7 2.3 3 3s2.7 1 4.1 1c5.7 0 9.4-4.5 9.4-11.6.3-7-3.5-11.5-9.3-11.5zm-1.2 19.1c-3.5 0-5.9-3.1-5.9-7.6s2.4-7.6 5.9-7.6c3.6 0 6 3 6 7.6s-2.4 7.6-6 7.6z"/><path d="m189.9 58.7-3.4-.8c-4-1-5.6-2.3-5.6-4.5 0-2.8 2.6-4.6 6.3-4.6s6.3 1.9 6.6 5h4.7c-.2-5.4-4.6-9-11.2-9s-11.3 3.7-11.3 9c0 4.3 2.6 7 8.3 8.4l4 1c4 1 5.7 2.4 5.7 4.8 0 2.8-2.8 4.8-6.7 4.8-4.1 0-7.1-2-7.4-5.1h-4.8c.3 5.6 4.9 9.2 11.8 9.2 7.4 0 12-3.6 12-9.4 0-4.7-2.6-7.3-9-8.8z"/><path d="m208.9 48.3h-4.7v5.4h-3.2v3.7h3.3v13c0 4.4 1.8 6.1 6.4 6.1.9 0 1.7-.1 2.6-.2v-3.7c-.5.1-1 .1-1.5.1-1.9 0-2.8-.9-2.8-2.8v-12.6h4.3v-3.7h-4.3v-5.3z"/><path d="m226.5 53.3c-6.5 0-10.7 4.5-10.7 11.6s4.2 11.6 10.7 11.6c6.6 0 10.7-4.5 10.7-11.6s-4.2-11.6-10.7-11.6zm0 19.4c-3.8 0-6-2.9-6-7.8s2.2-7.8 6-7.8 6 2.9 6 7.8-2.3 7.8-6 7.8z"/><path d="m247.6 54.4c-1 .7-1.7 1.8-2 3h-.1v-3.9h-4.5v22.6h4.6v-13.3c-.1-.7 0-1.4.2-2s.6-1.2 1-1.7c.5-.5 1-.9 1.6-1.1s1.3-.4 2-.3c.7 0 1.4.1 2.1.3v-4.3c-.5-.1-1.1-.2-1.6-.2-1.1-.2-2.3.2-3.3.9z"/><path d="m258.3 66.1h16v-1.6c0-6.9-3.9-11.2-10.2-11.2-6.4 0-10.5 4.6-10.5 11.7s4.1 11.5 10.7 11.5c5.1 0 9.1-2.8 9.7-6.9h-4.4c-.4 1-1.1 1.9-2.1 2.5-.9.6-2 .8-3.1.7-.8 0-1.7-.1-2.4-.4-.8-.3-1.5-.8-2-1.4s-1-1.3-1.3-2.1-.4-1.6-.3-2.5v-.3zm.5-5.5c.3-.7.7-1.3 1.2-1.9.5-.5 1.2-1 1.9-1.2.7-.3 1.5-.4 2.2-.4.8 0 1.5.1 2.2.4s1.3.7 1.8 1.3c.5.5.9 1.2 1.2 1.9s.4 1.5.3 2.2h-11.3c0-.8.2-1.6.5-2.3z"/><path d="m100.4 23.9c-.7-.7-1.5-1.3-2.4-1.6-.9-.4-1.9-.5-2.9-.4h-5.4v14.9h5.4c4.4 0 7-2.7 7-7.5.1-1 0-2-.3-2.9-.2-1-.7-1.8-1.4-2.5zm-.8 7.4c-.2.7-.6 1.3-1 1.8-.5.5-1.1.9-1.7 1.2s-1.3.4-2 .3h-2.8v-10.7h2.8c.7 0 1.4.1 2 .3.6.3 1.2.7 1.7 1.2s.8 1.1 1 1.8.3 1.4.2 2c.1.8 0 1.5-.2 2.1z"/><path d="m115.1 28.9c-.2-.7-.6-1.4-1.1-1.9s-1.1-1-1.8-1.3-1.4-.5-2.2-.5-1.5.2-2.2.5-1.3.7-1.8 1.3c-.5.5-.9 1.2-1.1 1.9s-.3 1.5-.2 2.2c-.1.7 0 1.5.2 2.2s.6 1.4 1.1 1.9c.5.6 1.1 1 1.8 1.3s1.4.5 2.2.5 1.5-.2 2.2-.5 1.3-.7 1.8-1.3.9-1.2 1.1-1.9.3-1.5.2-2.2c.2-.7.1-1.5-.2-2.2zm-5 6.1c-1.9 0-3-1.4-3-3.9 0-2.4 1.1-3.9 3-3.9s3 1.4 3 3.9-1.1 3.9-3 3.9z"/><path d="m128.4 34.1h-.2l-2.3-8.6h-2.2l-2.3 8.6h-.1l-2.1-8.6h-2.2l3.1 11.2h2.3l2.3-8.2h.2l2.3 8.2h2.3l3.1-11.2h-2.2z"/><path d="m143.8 26.4c-.4-.4-.8-.7-1.3-.9s-1.1-.3-1.6-.2c-.7-.1-1.4.1-2 .5s-1.1.9-1.4 1.5h-.2v-1.8h-2.1v11.3h2.2v-6.6c0-.4 0-.7.1-1.1s.3-.7.6-.9c.3-.3.6-.5.9-.6s.7-.2 1.1-.2c1.6 0 2.4.9 2.4 2.7v6.7h2.2v-7.3c.1-.5 0-1.1-.1-1.6-.1-.6-.4-1.1-.8-1.5z"/><path d="m148.3 21.1h2.2v15.7h-2.2z"/><path d="m164 28.9c-.2-.7-.6-1.4-1.1-1.9s-1.1-1-1.8-1.3-1.4-.5-2.2-.5c-.7 0-1.5.2-2.2.5s-1.3.7-1.8 1.3-.9 1.2-1.1 1.9-.3 1.5-.2 2.2c-.1.7 0 1.5.2 2.2s.6 1.4 1.1 1.9c.5.6 1.1 1 1.8 1.3s1.4.5 2.2.5c.7 0 1.5-.2 2.2-.5s1.3-.7 1.8-1.3.9-1.2 1.1-1.9.3-1.5.2-2.2c.1-.7 0-1.5-.2-2.2zm-5.1 6.1c-1.9 0-3-1.4-3-3.9 0-2.4 1.1-3.9 3-3.9s3 1.4 3 3.9-1.1 3.9-3 3.9z"/><path d="m171.6 25.3c-2.6 0-4.4 1.2-4.6 3.2h2.2c.2-.8 1.1-1.3 2.3-1.3 1.5 0 2.3.7 2.3 1.9v1l-3.1.2c-2.7.2-4.2 1.3-4.2 3.4 0 .5.1.9.3 1.4.2.4.5.8.8 1.1.4.3.8.6 1.2.7.5.1.9.2 1.4.1.7 0 1.3-.1 1.9-.4s1.1-.8 1.5-1.3h.2v1.6h2.1v-7.7c.1-2.5-1.5-3.9-4.3-3.9zm2.2 7.3c0 .4-.1.7-.3 1s-.4.6-.7.8-.6.4-.9.5-.7.1-1.1.1c-1.2 0-2.1-.6-2.1-1.6s.7-1.5 2.3-1.6l2.7-.2v1z"/><path d="m187.2 27.3h-.2c-.3-.6-.8-1.1-1.4-1.5-.6-.3-1.3-.5-2-.5-2.8 0-4.7 2.3-4.7 5.8 0 3.6 1.8 5.8 4.7 5.8.7 0 1.4-.1 2-.5.6-.3 1.1-.9 1.5-1.5h.2v1.8h2.1v-15.6h-2.2zm-3 7.6c-1.9 0-3-1.4-3-3.8 0-2.4 1.1-3.8 3-3.8s3 1.5 3 3.8c.1 2.4-1.1 3.8-3 3.8z"/><path d="m209 28.9c-.2-.7-.6-1.4-1.1-1.9s-1.1-1-1.8-1.3-1.4-.5-2.2-.5c-.7 0-1.5.2-2.2.5s-1.3.7-1.8 1.3c-.5.5-.9 1.2-1.1 1.9s-.3 1.5-.2 2.2c-.1.7 0 1.5.2 2.2s.6 1.4 1.1 1.9c.5.6 1.1 1 1.8 1.3s1.4.5 2.2.5c.7 0 1.5-.2 2.2-.5s1.3-.7 1.8-1.3.9-1.2 1.1-1.9.3-1.5.2-2.2c.1-.7 0-1.5-.2-2.2zm-5 6.1c-1.9 0-3-1.4-3-3.9 0-2.4 1.1-3.9 3-3.9s3 1.4 3 3.9-1.1 3.9-3 3.9z"/><path d="m220.9 26.4c-.4-.4-.8-.7-1.3-.9s-1.1-.3-1.6-.2c-.7-.1-1.4.1-2 .5s-1.1.9-1.4 1.5h-.2v-1.8h-2.1v11.3h2.2v-6.6c0-.4 0-.7.1-1.1s.3-.7.6-.9c.3-.3.6-.5.9-.6s.7-.2 1.1-.2c1.6 0 2.4.9 2.4 2.7v6.7h2.2v-7.3c.1-.5 0-1.1-.1-1.6-.2-.6-.5-1.1-.8-1.5z"/><path d="m234.4 22.7h-2.2v2.9h-1.8v1.9h1.8v6.4c0 2.2 1 3 3.5 3 .4 0 .8 0 1.2-.1v-1.9c-.3 0-.6.1-.8.1-1.1 0-1.6-.5-1.6-1.7v-5.8h2.4v-1.9h-2.4v-2.9z"/><path d="m248.6 26.5c-.4-.4-.8-.7-1.3-.9s-1-.3-1.6-.3c-.7-.1-1.4.1-2 .5s-1.1.9-1.4 1.6h-.3v-6.2h-2.2v15.7h2.2v-6.6c0-.4 0-.8.1-1.1.1-.4.3-.7.6-1s.6-.5 1-.6.7-.2 1.1-.2c1.6 0 2.4.9 2.4 2.7v6.7h2.2v-7.3c.1-.5 0-1.1-.1-1.6-.1-.6-.4-1-.7-1.4z"/><path d="m262.6 31.7v-.8c0-3.5-1.9-5.7-5-5.7-.7 0-1.5.1-2.2.5-.7.3-1.3.7-1.8 1.3s-.9 1.2-1.1 1.9-.3 1.5-.2 2.2c-.1.7 0 1.5.2 2.2s.6 1.4 1.1 1.9c.5.6 1.1 1 1.8 1.3s1.4.4 2.2.4c1.1.1 2.1-.1 3-.7s1.5-1.5 1.8-2.5h-2.1c-.3.5-.7.8-1.1 1.1-.5.2-1 .3-1.5.3-.4 0-.8-.1-1.2-.2-.4-.2-.7-.4-1-.7s-.5-.7-.6-1.1-.2-.8-.2-1.2v-.1h7.9zm-7.7-2.7c.1-.4.4-.7.6-1 .3-.3.6-.5 1-.6s.7-.2 1.1-.2.8.1 1.1.2c.4.1.7.4.9.6.3.3.5.6.6 1s.2.7.1 1.1h-5.7c.1-.4.1-.8.3-1.1z"/></g></svg>