<svg enable-background="new 0 0 337 100" viewBox="0 0 337 100" xmlns="http://www.w3.org/2000/svg" xmlns:xlink="http://www.w3.org/1999/xlink"><linearGradient id="a" gradientTransform="matrix(1 0 0 -1 0 99.8898)" gradientUnits="userSpaceOnUse" x1="54.4757" x2="12.7282" y1="77.9766" y2="36.2291"><stop offset="0" stop-color="#00a0ff"/><stop offset=".00657445" stop-color="#00a1ff"/><stop offset=".2601" stop-color="#00beff"/><stop offset=".5122" stop-color="#00d2ff"/><stop offset=".7604" stop-color="#00dfff"/><stop offset="1" stop-color="#00e3ff"/></linearGradient><linearGradient id="b" gradientTransform="matrix(1 0 0 -1 0 99.8898)" gradientUnits="userSpaceOnUse" x1="84.4139" x2="24.2224" y1="49.7049" y2="49.7049"><stop offset="0" stop-color="#ffe000"/><stop offset=".4087" stop-color="#ffbd00"/><stop offset=".7754" stop-color="#ffa500"/><stop offset="1" stop-color="#ff9c00"/></linearGradient><linearGradient id="c" gradientTransform="matrix(1 0 0 -1 0 99.8898)" gradientUnits="userSpaceOnUse" x1="61.8917" x2="5.279" y1="44.2939" y2="-12.3184"><stop offset="0" stop-color="#ff3a44"/><stop offset="1" stop-color="#c31162"/></linearGradient><linearGradient id="d" gradientTransform="matrix(1 0 0 -1 0 99.8898)" gradientUnits="userSpaceOnUse" x1="18.4013" x2="43.6811" y1="99.203" y2="73.9231"><stop offset="0" stop-color="#32a071"/><stop offset=".0685" stop-color="#2da771"/><stop offset=".4762" stop-color="#15cf74"/><stop offset=".8009" stop-color="#06e775"/><stop offset="1" stop-color="#00f076"/></linearGradient><linearGradient id="e" gradientTransform="matrix(1 0 0 -1 0 99.8898)" gradientUnits="userSpaceOnUse" x1="84.414" x2="24.2223" y1="39.3134" y2="39.3134"><stop offset="0" stop-color="#ccb300"/><stop offset=".4087" stop-color="#cc9700"/><stop offset=".7754" stop-color="#cc8400"/><stop offset="1" stop-color="#cc7d00"/></linearGradient><linearGradient id="f" gradientTransform="matrix(1 0 0 -1 0 99.8898)" gradientUnits="userSpaceOnUse" x1="62.0077" x2="5.3951" y1="44.1779" y2="-12.4344"><stop offset="0" stop-color="#cc2e36"/><stop offset="1" stop-color="#9c0e4e"/></linearGradient><linearGradient id="g" gradientTransform="matrix(1 0 0 -1 0 99.8898)" gradientUnits="userSpaceOnUse" x1="68.6355" x2="26.888" y1="63.8168" y2="22.0692"><stop offset="0" stop-color="#008de0"/><stop offset=".00657445" stop-color="#008de0"/><stop offset=".2601" stop-color="#00a7e0"/><stop offset=".5122" stop-color="#00b8e0"/><stop offset=".7604" stop-color="#00c4e0"/><stop offset="1" stop-color="#00c7e0"/></linearGradient><linearGradient id="h" gradientTransform="matrix(1 0 0 -1 0 99.8898)" gradientUnits="userSpaceOnUse" x1="56.7537" x2=".1418" y1="49.4323" y2="-7.1825"><stop offset="0" stop-color="#e0333c"/><stop offset="1" stop-color="#ab0f56"/></linearGradient><linearGradient id="i" gradientTransform="matrix(1 0 0 -1 0 99.8898)" gradientUnits="userSpaceOnUse" x1="84.4139" x2="24.2224" y1="44.632" y2="44.632"><stop offset="0" stop-color="#e0c500"/><stop offset=".4087" stop-color="#e0a600"/><stop offset=".7754" stop-color="#e09100"/><stop offset="1" stop-color="#e08900"/></linearGradient><linearGradient id="j" gradientTransform="matrix(1 0 0 -1 0 99.8898)" gradientUnits="userSpaceOnUse" x1="84.414" x2="24.2225" y1="55.1414" y2="55.1414"><stop offset="0" stop-color="#ffe840"/><stop offset=".4087" stop-color="#ffce40"/><stop offset=".7754" stop-color="#ffbc40"/><stop offset="1" stop-color="#ffb540"/></linearGradient><linearGradient id="k" gradientTransform="matrix(1 0 0 -1 0 99.8898)" gradientUnits="userSpaceOnUse" x1="39.5621" x2="-2.1854" y1="92.8903" y2="51.1428"><stop offset="0" stop-color="#40b8ff"/><stop offset=".00657445" stop-color="#40b9ff"/><stop offset=".2601" stop-color="#40ceff"/><stop offset=".5122" stop-color="#40ddff"/><stop offset=".7604" stop-color="#40e7ff"/><stop offset="1" stop-color="#40eaff"/></linearGradient><linearGradient id="l" gradientTransform="matrix(1 0 0 -1 0 99.8898)" gradientUnits="userSpaceOnUse" x1="18.4013" x2="43.6811" y1="99.2028" y2="73.923"><stop offset="0" stop-color="#65b895"/><stop offset=".0685" stop-color="#62bd95"/><stop offset=".4762" stop-color="#50db97"/><stop offset=".8009" stop-color="#44ed98"/><stop offset="1" stop-color="#40f498"/></linearGradient><path d="m323.6 99.8h-310.9c-6.8 0-12.4-5.6-12.4-12.4v-74.7c0-6.8 5.6-12.4 12.4-12.4h310.9c6.8 0 12.4 5.6 12.4 12.4v74.6c.1 6.9-5.5 12.5-12.4 12.5z"/><path d="m323.6.2h-310.9c-6.9 0-12.5 5.6-12.5 12.5v74.6c0 6.8 5.6 12.4 12.4 12.4h310.9c6.8 0 12.4-5.6 12.4-12.4v-74.6c.2-6.9-5.4-12.5-12.3-12.5zm0 2c5.8 0 10.4 4.7 10.4 10.4v74.6c0 5.8-4.7 10.4-10.4 10.4h-310.9c-5.8 0-10.4-4.7-10.4-10.4v-74.5c0-5.8 4.7-10.4 10.4-10.4h310.9z" fill="#a6a6a6"/><g fill="#fff"><path d="m118.2 25.7c0 2.1-.6 3.7-1.9 5-1.4 1.5-3.2 2.2-5.5 2.2-2.2 0-4-.7-5.5-2.2s-2.3-3.3-2.3-5.6c0-2.2.8-4.1 2.3-5.6s3.3-2.2 5.5-2.2c1.1 0 2.1.2 3.1.6s1.8 1 2.3 1.7l-1.3 1.3c-1-1.2-2.3-1.8-4.1-1.8-1.6 0-2.9.6-4.1 1.7-1.1 1.1-1.7 2.5-1.7 4.3s.6 3.2 1.7 4.3 2.5 1.7 4.1 1.7c1.7 0 3.1-.6 4.2-1.7.7-.7 1.1-1.7 1.3-3h-5.4v-1.8h7.2c.1.4.1.8.1 1.1"/><path d="m118.3 24.6v-.2h-7.7v2 .2h5.4c-.1 1.1-.5 2-1.1 2.6-1.1 1.1-2.4 1.6-4 1.6-1.5 0-2.8-.5-3.9-1.6s-1.6-2.4-1.6-4.1.5-3.1 1.6-4.1c1.1-1.1 2.4-1.6 3.9-1.6 1.7 0 3 .6 3.9 1.7l.2.2 1.5-1.5.2-.2-.1-.2c-.6-.7-1.4-1.3-2.4-1.7s-2.1-.6-3.2-.6c-2.2 0-4.1.8-5.7 2.3s-2.3 3.5-2.3 5.7c0 2.3.8 4.2 2.3 5.7s3.5 2.3 5.7 2.3c2.3 0 4.2-.8 5.7-2.3 1.3-1.3 1.9-3 1.9-5.2-.1-.2-.2-.6-.3-1zm-2.1 5.9c-1.4 1.4-3.1 2.1-5.3 2.1-2.1 0-3.9-.7-5.3-2.2-1.5-1.5-2.2-3.2-2.2-5.4s.7-3.9 2.2-5.4 3.2-2.2 5.3-2.2c1 0 2 .2 3 .6.9.4 1.5.9 2.1 1.4l-1 1c-1-1.1-2.4-1.7-4.1-1.7-1.6 0-3.1.6-4.2 1.7-1.2 1.2-1.8 2.7-1.8 4.5s.6 3.3 1.8 4.5c1.2 1.1 2.6 1.7 4.2 1.7 1.7 0 3.2-.6 4.3-1.7.8-.8 1.2-1.8 1.3-3.2v-.3h-5.4v-1.3h6.8c0 .3.1.6.1.9 0 2.3-.6 3.8-1.8 5z"/><path d="m120.7 32.8h9.2v-2-.3h-6.8v-4.2h6.2v-2.1-.2h-6.2v-4.3h6.8v-.2-1.8-.3h-9.2z"/><path d="m131.4 19.5v.2h4.2v13.1h2.2.2v-.2-12.9h4.2v-2-.3h-10.8z"/><path d="m149.1 17.4v15.4h.2 2 .2v-15.4h-2.2z"/><path d="m153.4 19.5v.2h4.2v13.1h2.2.2v-.2-12.9h4.2v-2-.3h-10.8z"/><path d="m177.9 17.1c-2.2 0-4.1.8-5.6 2.3-1.5 1.5-2.3 3.5-2.3 5.7s.8 4.2 2.3 5.7c1.5 1.6 3.4 2.3 5.6 2.3s4.1-.8 5.7-2.3c1.5-1.5 2.3-3.5 2.3-5.7s-.8-4.1-2.3-5.7c-1.6-1.5-3.5-2.3-5.7-2.3zm3.9 12.1c-1.1 1.1-2.3 1.6-3.9 1.6-1.5 0-2.8-.5-3.9-1.6s-1.6-2.4-1.6-4.1.5-3 1.6-4.1 2.3-1.6 3.9-1.6c1.5 0 2.8.5 3.9 1.6s1.6 2.4 1.6 4.1c-.1 1.7-.6 3.1-1.6 4.1z"/><path d="m197.8 17.4h-.2v9 2.1l-6.9-11.1h-2.5-.2v15.4h.2 2 .2v-9.5-2.1l7.2 11.6h2.2.2v-15.4z"/><path d="m266.3 74.9h4.6v-31.1h-4.6zm41.8-19.9-5.3 13.5h-.2l-5.5-13.5h-5l8.3 18.8-4.7 10.5h4.8l12.7-29.3zm-26.4 16.3c-1.5 0-3.6-.8-3.6-2.6 0-2.4 2.6-3.3 4.9-3.3 2 0 3 .4 4.2 1-.3 2.9-2.8 4.9-5.5 4.9zm.6-17c-3.4 0-6.8 1.5-8.3 4.8l4.1 1.7c.9-1.7 2.5-2.3 4.2-2.3 2.4 0 4.8 1.4 4.9 4v.3c-.8-.5-2.6-1.2-4.8-1.2-4.4 0-9 2.4-9 7 0 4.2 3.6 6.8 7.7 6.8 3.1 0 4.8-1.4 5.9-3h.2v2.4h4.5v-11.9c0-5.5-4.1-8.6-9.4-8.6zm-28.7 4.5h-6.6v-10.7h6.6c3.5 0 5.4 2.9 5.4 5.3.1 2.4-1.9 5.4-5.4 5.4zm-.1-15h-11.1v31.1h4.6v-11.8h6.5c5.1 0 10.2-3.7 10.2-9.7 0-5.9-5.1-9.6-10.2-9.6zm-60.7 27.5c-3.2 0-5.9-2.7-5.9-6.4s2.7-6.5 5.9-6.5 5.7 2.7 5.7 6.5-2.5 6.4-5.7 6.4zm5.4-14.6h-.2c-1-1.2-3-2.4-5.6-2.4-5.3 0-10.1 4.6-10.1 10.6 0 5.9 4.8 10.5 10.1 10.5 2.5 0 4.5-1.1 5.6-2.4h.2v1.5c0 4-2.2 6.2-5.6 6.2-2.8 0-4.6-2-5.3-3.8l-4 1.7c1.2 2.8 4.2 6.3 9.4 6.3 5.4 0 10.1-3.2 10.1-11v-18.9h-4.4v1.7zm7.6 18.2h4.6v-31.1h-4.6zm11.5-10.3c-.1-4.1 3.2-6.2 5.5-6.2 1.8 0 3.4.9 3.9 2.2zm14.4-3.5c-.9-2.4-3.6-6.7-9.1-6.7-5.4 0-10 4.3-10 10.6 0 5.9 4.5 10.6 10.5 10.6 4.9 0 7.7-3 8.8-4.7l-3.6-2.4c-1.2 1.8-2.8 2.9-5.2 2.9s-4-1.1-5.1-3.2l14.1-5.9zm-112.7-3.5v4.5h10.7c-.3 2.5-1.2 4.4-2.4 5.7-1.6 1.6-4 3.3-8.3 3.3-6.6 0-11.8-5.3-11.8-11.9s5.2-11.9 11.8-11.9c3.6 0 6.2 1.4 8.1 3.2l3.2-3.2c-2.7-2.6-6.3-4.5-11.3-4.5-9.1 0-16.7 7.4-16.7 16.4s7.7 16.3 16.7 16.3c4.9 0 8.6-1.6 11.5-4.6 3-3 3.9-7.1 3.9-10.5 0-1-.1-2-.2-2.8zm27.6 13.7c-3.2 0-6-2.6-6-6.4s2.8-6.4 6-6.4 6 2.6 6 6.4c-.1 3.8-2.8 6.4-6 6.4zm0-16.9c-5.9 0-10.6 4.4-10.6 10.6 0 6.1 4.8 10.6 10.6 10.6s10.6-4.5 10.6-10.6c0-6.2-4.8-10.6-10.6-10.6zm23.1 16.9c-3.2 0-6-2.6-6-6.4s2.8-6.4 6-6.4 6 2.6 6 6.4-2.8 6.4-6 6.4zm0-16.9c-5.9 0-10.6 4.4-10.6 10.6 0 6.1 4.8 10.6 10.6 10.6s10.6-4.5 10.6-10.6c.1-6.2-4.7-10.6-10.6-10.6z"/></g><path d="m26.4 80.8-.2-.2c-.7-.8-1.2-2-1.2-3.5v.4-55 .4c0-1.7.5-2.9 1.3-3.7l30.9 30.8zm-1.3-58.3c0-.1 0-.3 0-.4z" fill="url(#a)"/><path d="m67.5 60.6.2-.1 12.2-6.9c1.2-.7 1.9-1.5 2.3-2.3-.4.8-1.2 1.6-2.3 2.3l-12.2 6.9zm0-.3-10.3-10.3 10.3-10.3 12.4 7c1.6.9 2.5 2 2.6 3.2-.1 1.2-1 2.3-2.6 3.2z" fill="url(#b)"/><path d="m28.6 82c-.9 0-1.6-.3-2.2-.8.6.5 1.3.8 2.2.8h.2c-.1 0-.1 0-.2 0zm0-.4c-.9 0-1.6-.3-2.2-.8l30.8-30.8 10.3 10.3-36.1 20.5c-1 .6-2 .8-2.8.8zm-2.2-.4c-.1 0-.1-.1-.2-.2z" fill="url(#c)"/><path d="m57.2 50-30.8-30.8c.6-.5 1.3-.8 2.2-.8.8 0 1.8.3 2.8.8l36.1 20.5zm10.5-10.5-36.3-20.7c-1-.6-1.9-.8-2.8-.8.8 0 1.8.3 2.8.8z" fill="url(#d)"/><path d="m28.8 82c.8 0 1.6-.3 2.6-.8l36.1-20.5-36.1 20.5c-.9.5-1.8.7-2.6.8z"/><path d="m67.5 60.6.2-.1z" fill="url(#e)"/><path d="m28.6 82c-.9 0-1.6-.3-2.2-.8l-.2-.2.2-.2c.6.5 1.3.8 2.2.8.8 0 1.8-.3 2.8-.8l36.1-20.5.2.2-.2.1-36.1 20.6c-.9.5-1.8.8-2.6.8-.1 0-.1 0-.2 0" fill="url(#f)"/><path d="m26.2 81c-.7-.8-1.2-2-1.2-3.5.1 1.6.5 2.7 1.2 3.5z"/><path d="m26.2 81c-.7-.8-1.2-2-1.2-3.5v-.4c0 1.5.4 2.7 1.2 3.5l.2.2z" fill="url(#g)"/><path d="m26.2 81 .2-.2z" fill="url(#h)"/><path d="m82.2 51.3c.2-.4.3-.9.3-1.3 0 .4-.1.9-.3 1.3z"/><path d="m67.7 60.5-.2-.2 12.4-7c1.6-.9 2.5-2 2.6-3.2 0 .4-.1.9-.3 1.3-.4.8-1.2 1.6-2.3 2.3z" fill="url(#i)"/><path d="m82.5 50c0-1.3-.9-2.6-2.6-3.6l-12.2-6.9 12.2 6.9c1.7 1 2.6 2.3 2.6 3.6z" fill="#404040"/><path d="m82.5 50c-.1-1.2-1-2.3-2.6-3.2l-12.4-7 .2-.2 12.2 6.9c1.7.9 2.6 2.2 2.6 3.5z" fill="url(#j)"/><path d="m25.1 22.1c.1-2.6 1.5-4 3.5-4-.9 0-1.6.3-2.2.8-.1.1-.1.1-.2.2-.6.6-1.1 1.6-1.1 3z" fill="#404040"/><path d="m25.1 22.9v-.4c0-.1 0-.3 0-.4.1-1.3.5-2.4 1.1-3.1l.2.2c-.8.7-1.3 2-1.3 3.7z" fill="url(#k)"/><path d="m67.5 39.7-36.1-20.5c-1-.6-1.9-.8-2.8-.8s-1.6.3-2.2.8l-.2-.2c.1-.1.1-.1.2-.2.6-.5 1.3-.8 2.2-.8.8 0 1.8.3 2.8.8l36.3 20.6z" fill="url(#l)"/></svg>